HIERARCHY
ROOT pelvis
{
  OFFSET 0 100 0
  CHANNELS 6 Xposition Yposition Zposition Zrotation Xrotation Yrotation
  JOINT pelvis_right_femur
  {
    OFFSET -10.78128 -3.44521 -0.5502486
    CHANNELS 3 Zrotation Xrotation Yrotation
    JOINT right_femur_tibia
    {
      OFFSET -0.8047443 -44.0398 -0.1307829
      CHANNELS 3 Zrotation Xrotation Yrotation
      JOINT right_tibia_foot
      {
        OFFSET 3.006224 -47.83518 -5
        CHANNELS 3 Zrotation Xrotation Yrotation
        End Site
        {
          OFFSET 0 -5 15
        }
      }
    }
  }
  JOINT pelvis_left_femur
  {
    OFFSET 10.78128 -3.44521 -0.5502486
    CHANNELS 3 Zrotation Xrotation Yrotation
    JOINT left_femur_tibia
    {
      OFFSET 0.8047443 -44.0398 -0.1307829
      CHANNELS 3 Zrotation Xrotation Yrotation
      JOINT left_tibia_foot
      {
        OFFSET -4.370144 -48.10324 -4.275266
        CHANNELS 3 Zrotation Xrotation Yrotation
        End Site
        {
          OFFSET 0 -5 15
        }
      }
    }
  }
  JOINT pelvis_spine1
  {
    OFFSET 0 6.468898 -3.129235
    CHANNELS 3 Zrotation Xrotation Yrotation
    JOINT spine1
    {
      OFFSET 0 23.15396 4.99043
      CHANNELS 3 Zrotation Xrotation Yrotation
      JOINT spine2
      {
        OFFSET 0 20.79997 -5.064912
        CHANNELS 3 Zrotation Xrotation Yrotation
        JOINT neck
        {
          OFFSET 0 14.38658 9.616178
          CHANNELS 3 Zrotation Xrotation Yrotation
          End Site
          {
            OFFSET 0 20 0
          }
        }
      }
      JOINT right_manubrium
      {
        OFFSET -5.722621 16.35077 3.967754
        CHANNELS 3 Zrotation Xrotation Yrotation
        JOINT right_clavicle
        {
          OFFSET -13.16364 1.694482 -4.693211
          CHANNELS 3 Zrotation Xrotation Yrotation
          JOINT right_humerus
          {
            OFFSET -28.5034 -0.3100689 -2.792744
            CHANNELS 3 Zrotation Xrotation Yrotation
            JOINT right_radius
            {
              OFFSET -25.15693 0.02248979 -1.271978
              CHANNELS 3 Zrotation Xrotation Yrotation
              End Site
              {
                OFFSET -15 0 0
              }
            }
          }
        }
      }
      JOINT left_manubrium
      {
        OFFSET 5.722621 16.35077 3.967754
        CHANNELS 3 Zrotation Xrotation Yrotation
        JOINT left_clavicle
        {
          OFFSET 13.16364 1.694482 -4.693211
          CHANNELS 3 Zrotation Xrotation Yrotation
          JOINT left_humerus
          {
            OFFSET 29.39168 -1.063119 -2.237045
            CHANNELS 3 Zrotation Xrotation Yrotation
            JOINT left_radius
            {
              OFFSET 24.59957 -0.9528479 0.9047498
              CHANNELS 3 Zrotation Xrotation Yrotation
              End Site
              {
                OFFSET 15 -0 -0
              }
            }
          }
        }
      }
    }
  }
}
MOTION
Frames: 11
Frame Time: 0.0416666666667
-1574.436 102.8073 1068.703 -8.827331 4.20478 -144.7482 0.969896 1.851758 8.537552 -0 36.62331 -0 -0.7701768 -11.26042 -3.633249 -9.325032 5.889601 -4.272402 -0 10.94836 -0 40.21069 2.994814 21.00353 0.5733739 -1.03895 6.398373 -0.7503132 14.16506 -5.591001 1.476501 20.58988 3.749508 -0.137556 -25.2241 7.002598 -7.868196 -28.7157 9.577884 99.84951 21.25914 -15.72058 -0 0 17.0162 -19.65218 6.406444 13.2602 0.4807721 -22.57352 -7.18357 -87.88373 14.26707 29.10803 0 0 -22.34792 4.143576 7.56583 12.30884
-1578.744 103.1354 1065.803 -8.706686 3.872491 -144.817 0.8113729 1.271211 7.526791 -0 35.87531 -0 -1.359168 -11.91574 -3.238039 -9.68472 6.662851 -5.687137 -0 10.2273 -0 39.00595 2.112206 21.82815 0.5734618 -1.039058 6.398269 -0.7502259 14.1651 -5.591214 1.47656 20.59002 3.74953 -0.137469 -25.22373 7.002576 -7.868138 -28.71505 9.57801 99.84988 21.25888 -15.72156 -0 0 17.01505 -19.65217 6.406452 13.25972 0.4809134 -22.5741 -7.183749 -87.88319 14.26709 29.10672 0 0 -22.34919 4.143853 7.566291 12.30848
-1582.8 103.3542 1063.007 -8.558413 3.562671 -144.8473 0.6749996 0.644749 6.560733 -0 35.15988 -0 -1.967853 -12.51064 -2.855715 -9.958388 7.376006 -7.098935 -0 9.549663 -0 37.65102 1.168298 22.58826 0.5735729 -1.039184 6.398188 -0.7501381 14.16518 -5.591437 1.476627 20.59014 3.749507 -0.1374002 -25.22329 7.002517 -7.86806 -28.71444 9.578161 99.85019 21.25862 -15.72252 -0 0 17.014 -19.65219 6.406588 13.25926 0.4810355 -22.57468 -7.183944 -87.88266 14.26705 29.10549 0 0 -22.35046 4.144102 7.566796 12.30813
-1586.61 103.4648 1060.315 -8.381112 3.276702 -144.8421 0.5667812 -0.04538463 5.659713 -0 34.4971 -0 -2.58644 -13.03173 -2.49353 -10.15062 8.028131 -8.484886 -0 8.931876 -0 36.19465 0.1805533 23.27838 0.5737045 -1.039325 6.398129 -0.7500511 14.16531 -5.591669 1.476701 20.59023 3.749444 -0.1373486 -25.22279 7.002426 -7.867965 -28.71387 9.578332 99.85046 21.25835 -15.72343 -0 0 17.01306 -19.65223 6.406836 13.25884 0.4811387 -22.57524 -7.184152 -87.88215 14.26694 29.10435 0 0 -22.35173 4.144323 7.567333 12.30779
-1590.185 103.4704 1057.726 -8.17403 3.016814 -144.8057 0.4926685 -0.8154242 4.836419 -0 33.89856 -0 -3.208274 -13.46668 -2.156081 -10.26642 8.61979 -9.824598 -0 8.387901 -0 34.67834 -0.8346385 23.89575 0.573854 -1.039477 6.398091 -0.7499656 14.16547 -5.591906 1.476782 20.59029 3.749346 -0.1373127 -25.22225 7.002305 -7.867857 -28.71333 9.578519 99.85068 21.25809 -15.7243 -0 0 17.01222 -19.6523 6.407181 13.25843 0.4812232 -22.57578 -7.18437 -87.88164 14.26678 29.1033 0 0 -22.35298 4.144519 7.567893 12.30746
-1593.538 103.3754 1055.235 -7.93706 2.785605 -144.7431 0.4582016 -1.679634 4.097443 -0 33.36816 -0 -3.828495 -13.80416 -1.845656 -10.31116 9.152738 -11.0994 -0 7.928926 -0 33.138 -1.86198 24.43943 0.5740187 -1.039638 6.398071 -0.7498825 14.16567 -5.592148 1.476867 20.59032 3.749215 -0.1372913 -25.22166 7.002159 -7.867738 -28.71282 9.578719 99.85087 21.25782 -15.72512 -0 0 17.01147 -19.65238 6.407609 13.25805 0.4812898 -22.5763 -7.184596 -87.88115 14.26658 29.10232 0 0 -22.35422 4.144688 7.568469 12.30716
-1596.682 103.1856 1052.835 -7.670794 2.585612 -144.6601 0.4682161 -2.649907 3.444347 -0 32.90272 -0 -4.443227 -14.03379 -1.562465 -10.29061 9.629743 -12.29188 -0 7.563287 -0 31.60549 -2.887211 24.90977 0.5741961 -1.039805 6.39807 -0.7498022 14.16589 -5.592392 1.476956 20.59032 3.749057 -0.137283 -25.22103 7.001991 -7.867612 -28.71235 9.57893 99.85102 21.25757 -15.72591 -0 0 17.01081 -19.65247 6.408106 13.2577 0.4813394 -22.57681 -7.184828 -87.88067 14.26632 29.10143 0 0 -22.35544 4.144833 7.569053 12.30687
-1599.633 102.907 1050.518 -7.376611 2.418933 -144.5633 0.5265456 -3.73531 2.874344 -0 32.49233 -0 -5.049172 -14.14628 -1.304782 -10.21109 10.05449 -13.38562 -0 7.296525 -0 30.10983 -3.897066 25.30796 0.5743838 -1.039975 6.398084 -0.7497252 14.16614 -5.592636 1.477049 20.59031 3.748875 -0.1372865 -25.22038 7.001803 -7.867481 -28.71192 9.579147 99.85114 21.25733 -15.72665 -0 0 17.01024 -19.65257 6.408662 13.25736 0.4813728 -22.57729 -7.185063 -87.8802 14.26603 29.10062 0 0 -22.35664 4.144954 7.569639 12.3066
-1602.41 102.5461 1048.27 -7.056797 2.286938 -144.4595 0.6356854 -4.941538 2.380677 -0 32.12059 -0 -5.643495 -14.1336 -1.069058 -10.07955 10.43154 -14.3653 -0 7.131566 -0 28.67803 -4.879274 25.63569 0.5745794 -1.040148 6.398114 -0.7496521 14.1664 -5.592878 1.477143 20.59027 3.748673 -0.1373007 -25.21972 7.0016 -7.867347 -28.71152 9.579369 99.85124 21.25711 -15.72735 -0 0 17.00975 -19.65268 6.409266 13.25705 0.481391 -22.57775 -7.1853 -87.87975 14.2657 29.09988 0 0 -22.35781 4.145053 7.57022 12.30635
-1605.032 102.1091 1046.076 -6.714678 2.190063 -144.3556 0.7964108 -6.270249 1.952842 -0 31.76499 -0 -6.22394 -13.98913 -0.8500554 -9.903622 10.76633 -15.21683 -0 7.069081 -0 27.33544 -5.822597 25.8949 0.5747808 -1.04032 6.398157 -0.7495832 14.16667 -5.593117 1.477237 20.59022 3.748455 -0.1373247 -25.21904 7.001384 -7.867211 -28.71116 9.579592 99.85131 21.2569 -15.72801 -0 0 17.00934 -19.6528 6.409907 13.25676 0.4813948 -22.57819 -7.185535 -87.87932 14.26535 29.09922 0 0 -22.35895 4.14513 7.570793 12.30613
-1607.523 101.6018 1043.918 -6.354781 2.127746 -144.2583 1.007366 -7.718309 1.576752 -0 31.39755 -0 -6.789096 -13.70792 -0.6410393 -9.691683 11.06513 -15.92773 -0 7.108093 -0 26.10574 -6.716885 26.08752 0.5749856 -1.040491 6.398212 -0.7495189 14.16696 -5.59335 1.477332 20.59015 3.748222 -0.1373576 -25.21836 7.001158 -7.867075 -28.71083 9.579815 99.85136 21.2567 -15.72861 -0 0 17.00901 -19.65291 6.410577 13.25649 0.4813851 -22.57859 -7.185768 -87.8789 14.26497 29.09864 0 0 -22.36005 4.145186 7.571351 12.30592
